<svg xmlns="http://www.w3.org/2000/svg" xmlns:xlink="http://www.w3.org/1999/xlink" width="600" zoomAndPan="magnify" viewBox="0 0 450 374.999991" height="500" preserveAspectRatio="xMidYMid meet" version="1.0"><defs><clipPath id="6f95144e45"><path d="M 183.128906 0 L 395 0 L 395 34.996094 L 183.128906 34.996094 Z M 183.128906 0 " clip-rule="nonzero"/></clipPath><clipPath id="8a103fa017"><path d="M 63.648438 -14.175781 L 467.34375 -30.296875 L 483.464844 373.402344 L 79.769531 389.519531 Z M 63.648438 -14.175781 " clip-rule="nonzero"/></clipPath><clipPath id="512063da17"><path d="M 63.648438 -14.175781 L 467.34375 -30.296875 L 483.464844 373.402344 L 79.769531 389.519531 Z M 63.648438 -14.175781 " clip-rule="nonzero"/></clipPath><clipPath id="a30d0d40fe"><path d="M 71 97 L 153 97 L 153 300.738281 L 71 300.738281 Z M 71 97 " clip-rule="nonzero"/></clipPath><clipPath id="6d6abd91a8"><path d="M 63.648438 -14.175781 L 467.34375 -30.296875 L 483.464844 373.402344 L 79.769531 389.519531 Z M 63.648438 -14.175781 " clip-rule="nonzero"/></clipPath><clipPath id="20f411db24"><path d="M 63.648438 -14.175781 L 467.34375 -30.296875 L 483.464844 373.402344 L 79.769531 389.519531 Z M 63.648438 -14.175781 " clip-rule="nonzero"/></clipPath><clipPath id="fbeab06469"><path d="M 234.628906 271 L 419 271 L 419 374.898438 L 234.628906 374.898438 Z M 234.628906 271 " clip-rule="nonzero"/></clipPath><clipPath id="1ab73f8abb"><path d="M 63.648438 -14.175781 L 467.34375 -30.296875 L 483.464844 373.402344 L 79.769531 389.519531 Z M 63.648438 -14.175781 " clip-rule="nonzero"/></clipPath><clipPath id="8493ace2d9"><path d="M 63.648438 -14.175781 L 467.34375 -30.296875 L 483.464844 373.402344 L 79.769531 389.519531 Z M 63.648438 -14.175781 " clip-rule="nonzero"/></clipPath><clipPath id="783f50248c"><path d="M 230.765625 278.667969 L 418.089844 271.1875 L 422.28125 376.1875 L 234.960938 383.667969 Z M 230.765625 278.667969 " clip-rule="nonzero"/></clipPath><clipPath id="7437a3c67d"><path d="M 330.417969 18.515625 L 449.898438 18.515625 L 449.898438 174 L 330.417969 174 Z M 330.417969 18.515625 " clip-rule="nonzero"/></clipPath><clipPath id="865efb2c5d"><path d="M 63.648438 -14.175781 L 467.34375 -30.296875 L 483.464844 373.402344 L 79.769531 389.519531 Z M 63.648438 -14.175781 " clip-rule="nonzero"/></clipPath><clipPath id="e291ee580b"><path d="M 63.648438 -14.175781 L 467.34375 -30.296875 L 483.464844 373.402344 L 79.769531 389.519531 Z M 63.648438 -14.175781 " clip-rule="nonzero"/></clipPath><clipPath id="f066bfcc45"><path d="M 330.695312 18.6875 L 469.425781 13.144531 L 475.835938 173.679688 L 337.101562 179.222656 Z M 330.695312 18.6875 " clip-rule="nonzero"/></clipPath><clipPath id="37e8083191"><path d="M 404.578125 124 L 449.898438 124 L 449.898438 334 L 404.578125 334 Z M 404.578125 124 " clip-rule="nonzero"/></clipPath><clipPath id="c4bad3226e"><path d="M 63.648438 -14.175781 L 467.34375 -30.296875 L 483.464844 373.402344 L 79.769531 389.519531 Z M 63.648438 -14.175781 " clip-rule="nonzero"/></clipPath><clipPath id="4b3acf7dec"><path d="M 63.648438 -14.175781 L 467.34375 -30.296875 L 483.464844 373.402344 L 79.769531 389.519531 Z M 63.648438 -14.175781 " clip-rule="nonzero"/></clipPath><clipPath id="11f5c5bd53"><path d="M 99.699219 0 L 223 0 L 223 160 L 99.699219 160 Z M 99.699219 0 " clip-rule="nonzero"/></clipPath><clipPath id="56f4d3a73c"><path d="M 63.648438 -14.175781 L 467.34375 -30.296875 L 483.464844 373.402344 L 79.769531 389.519531 Z M 63.648438 -14.175781 " clip-rule="nonzero"/></clipPath><clipPath id="ffd84b564f"><path d="M 63.648438 -14.175781 L 467.34375 -30.296875 L 483.464844 373.402344 L 79.769531 389.519531 Z M 63.648438 -14.175781 " clip-rule="nonzero"/></clipPath><clipPath id="b65d3ddf96"><path d="M 94 273 L 292.308594 273 L 292.308594 371 L 94 371 Z M 94 273 " clip-rule="nonzero"/></clipPath><clipPath id="8fcfcdb80f"><path d="M 63.648438 -14.175781 L 467.34375 -30.296875 L 483.464844 373.402344 L 79.769531 389.519531 Z M 63.648438 -14.175781 " clip-rule="nonzero"/></clipPath><clipPath id="cc949ec297"><path d="M 63.648438 -14.175781 L 467.34375 -30.296875 L 483.464844 373.402344 L 79.769531 389.519531 Z M 63.648438 -14.175781 " clip-rule="nonzero"/></clipPath><clipPath id="3ea873c4ea"><path d="M 293.339844 93 L 416 93 L 416 216 L 293.339844 216 Z M 293.339844 93 " clip-rule="nonzero"/></clipPath><clipPath id="d7e7fc7cbb"><path d="M 290.464844 127.980469 L 381.757812 89.996094 L 419.738281 181.289062 L 328.449219 219.273438 Z M 290.464844 127.980469 " clip-rule="nonzero"/></clipPath><clipPath id="395a395b7d"><path d="M 290.464844 127.980469 L 381.757812 89.996094 L 419.738281 181.289062 L 328.449219 219.273438 Z M 290.464844 127.980469 " clip-rule="nonzero"/></clipPath><clipPath id="cd4c7cc9fc"><path d="M 290.25 90 L 420 90 L 420 219.367188 L 290.25 219.367188 Z M 290.25 90 " clip-rule="nonzero"/></clipPath><clipPath id="d1ffcc1c08"><path d="M 290.464844 127.980469 L 381.757812 89.996094 L 419.738281 181.289062 L 328.449219 219.273438 Z M 290.464844 127.980469 " clip-rule="nonzero"/></clipPath><clipPath id="ca045919e8"><path d="M 290.464844 127.980469 L 381.757812 89.996094 L 419.738281 181.289062 L 328.449219 219.273438 Z M 290.464844 127.980469 " clip-rule="nonzero"/></clipPath><clipPath id="85ba78a8fc"><path d="M 333.511719 279.105469 L 397.371094 279.105469 L 397.371094 340.90625 L 333.511719 340.90625 Z M 333.511719 279.105469 " clip-rule="nonzero"/></clipPath><clipPath id="5541d33c23"><path d="M 333.652344 303.109375 L 377.464844 279.621094 L 397.269531 316.570312 L 353.453125 340.054688 Z M 333.652344 303.109375 " clip-rule="nonzero"/></clipPath><clipPath id="e05c7edfbf"><path d="M 232 25 L 405 25 L 405 154 L 232 154 Z M 232 25 " clip-rule="nonzero"/></clipPath><clipPath id="29896abfae"><path d="M 232.15625 117.152344 L 382.097656 25.558594 L 404.605469 62.40625 L 254.664062 153.996094 Z M 232.15625 117.152344 " clip-rule="nonzero"/></clipPath></defs><g clip-path="url(#6f95144e45)"><g clip-path="url(#8a103fa017)"><g clip-path="url(#512063da17)"><path fill="#727378" d="M 244.136719 -17.140625 C 242.867188 -16.320312 241.640625 -15.492188 240.398438 -14.667969 C 239.550781 -14.105469 238.683594 -13.542969 237.851562 -12.972656 C 236.449219 -12.015625 235.085938 -11.050781 233.714844 -10.082031 C 233.097656 -9.648438 232.460938 -9.214844 231.851562 -8.773438 C 229.875 -7.355469 227.933594 -5.921875 226.023438 -4.46875 C 221.042969 -0.699219 216.230469 3.269531 211.503906 7.320312 C 210.25 8.398438 209.011719 9.492188 207.777344 10.585938 C 203.746094 14.160156 199.808594 17.824219 195.976562 21.597656 C 195.324219 22.246094 194.636719 22.867188 193.988281 23.519531 C 190.429688 27.097656 187.035156 30.839844 183.660156 34.589844 C 198.6875 27.882812 214.179688 22.351562 229.941406 18.082031 C 254.234375 11.519531 279.535156 7.875 304.734375 7.195312 C 304.738281 7.195312 304.738281 7.195312 304.738281 7.195312 C 314.691406 6.929688 324.644531 7.179688 334.554688 7.859375 C 353.496094 9.164062 372.304688 12.148438 390.75 16.855469 C 392.074219 17.1875 393.390625 17.53125 394.714844 17.882812 C 386.621094 11.828125 378.0625 6.359375 369.097656 1.527344 C 337.433594 -15.457031 301.667969 -23.679688 265.671875 -22.246094 C 261.097656 -22.058594 256.28125 -21.660156 250.199219 -20.960938 C 249.070312 -20.265625 247.972656 -19.566406 246.863281 -18.867188 C 245.960938 -18.292969 245.03125 -17.71875 244.136719 -17.140625 " fill-opacity="1" fill-rule="nonzero"/></g></g></g><g clip-path="url(#a30d0d40fe)"><g clip-path="url(#6d6abd91a8)"><g clip-path="url(#20f411db24)"><path fill="#727378" d="M 88.808594 101.90625 C 88.851562 100.496094 88.902344 99.089844 88.964844 97.679688 C 84.816406 107.007812 81.375 116.667969 78.660156 126.582031 C 73.222656 146.414062 70.882812 167.027344 71.71875 187.847656 C 72.53125 208.226562 76.363281 228.199219 83.105469 247.238281 C 85.324219 249.496094 87.585938 251.664062 89.84375 253.835938 C 91.09375 255.039062 92.324219 256.296875 93.585938 257.472656 C 97.253906 260.890625 100.964844 264.191406 104.6875 267.332031 C 108.007812 270.105469 111.398438 272.78125 114.824219 275.417969 C 115.800781 276.160156 116.796875 276.898438 117.777344 277.636719 C 120.484375 279.664062 123.222656 281.636719 125.988281 283.574219 C 126.855469 284.175781 127.714844 284.796875 128.585938 285.390625 C 132.128906 287.808594 135.722656 290.160156 139.363281 292.429688 C 140.097656 292.886719 140.851562 293.320312 141.589844 293.773438 C 144.597656 295.609375 147.636719 297.394531 150.703125 299.132812 C 151.25 299.4375 151.796875 299.738281 152.347656 300.046875 C 142.417969 286.839844 133.535156 272.90625 125.820312 258.40625 C 114.066406 236.300781 104.902344 212.59375 98.574219 187.9375 C 92.269531 163.34375 88.960938 138.113281 88.722656 112.773438 C 88.6875 109.148438 88.71875 105.527344 88.808594 101.90625 " fill-opacity="1" fill-rule="nonzero"/></g></g></g><g clip-path="url(#fbeab06469)"><g clip-path="url(#1ab73f8abb)"><g clip-path="url(#8493ace2d9)"><g clip-path="url(#783f50248c)"><path fill="#727378" d="M 388.390625 340.054688 C 388.824219 339.3125 389.285156 338.558594 389.714844 337.820312 C 390.628906 336.226562 391.503906 334.660156 392.371094 333.082031 C 392.679688 332.53125 393.007812 331.972656 393.304688 331.417969 C 394.457031 329.300781 395.566406 327.191406 396.636719 325.09375 C 398.617188 321.242188 400.484375 317.335938 402.292969 313.40625 C 402.804688 312.300781 403.304688 311.183594 403.800781 310.0625 C 405.183594 306.96875 406.507812 303.851562 407.785156 300.714844 C 408.183594 299.738281 408.597656 298.765625 408.984375 297.789062 C 410.554688 293.804688 412.046875 289.785156 413.449219 285.738281 C 413.746094 284.886719 414.011719 284.023438 414.296875 283.171875 C 415.410156 279.867188 416.464844 276.542969 417.457031 273.199219 C 417.644531 272.585938 417.820312 271.964844 418.003906 271.351562 C 407.34375 283.941406 395.726562 295.691406 383.277344 306.449219 C 364.230469 322.949219 343.148438 337.175781 320.640625 348.734375 C 320.640625 348.734375 320.636719 348.734375 320.628906 348.738281 C 298.140625 360.335938 274.289062 369.15625 249.601562 375.015625 C 246.074219 375.851562 242.527344 376.625 238.96875 377.339844 C 237.59375 377.621094 236.214844 377.890625 234.824219 378.152344 C 244.738281 380.082031 254.847656 381.269531 265.066406 381.710938 C 271.75 381.964844 276.921875 381.996094 281.804688 381.800781 C 317.390625 380.378906 352 369.566406 381.984375 350.515625 C 382.734375 349.332031 383.457031 348.171875 384.175781 347.011719 C 384.722656 346.125 385.300781 345.230469 385.832031 344.359375 C 386.710938 342.90625 387.546875 341.484375 388.390625 340.054688 " fill-opacity="1" fill-rule="nonzero"/></g></g></g></g><g clip-path="url(#7437a3c67d)"><g clip-path="url(#865efb2c5d)"><g clip-path="url(#e291ee580b)"><g clip-path="url(#f066bfcc45)"><path fill="#727378" d="M 475.820312 173.585938 C 475.804688 172.960938 475.777344 172.332031 475.753906 171.714844 C 475.386719 162.542969 474.3125 152.957031 472.5625 143.214844 C 465.078125 102.460938 445.523438 65.5 415.980469 36.25 C 413.007812 35.171875 410.117188 34.230469 407.207031 33.269531 C 405.515625 32.710938 403.777344 32.074219 402.097656 31.554688 C 398.097656 30.3125 394.144531 29.234375 390.179688 28.203125 C 389.46875 28.015625 388.742188 27.777344 388.03125 27.597656 C 383.808594 26.519531 379.558594 25.566406 375.296875 24.671875 C 374.148438 24.429688 372.996094 24.207031 371.835938 23.976562 C 368.457031 23.304688 365.0625 22.699219 361.660156 22.140625 C 360.667969 21.976562 359.675781 21.804688 358.675781 21.652344 C 354.410156 21 350.140625 20.4375 345.859375 19.964844 C 345.011719 19.878906 344.167969 19.8125 343.332031 19.726562 C 339.8125 19.375 336.28125 19.082031 332.757812 18.851562 C 332.128906 18.8125 331.507812 18.773438 330.882812 18.738281 C 345.535156 26.320312 359.578125 35.035156 372.835938 44.78125 C 393.148438 59.675781 411.710938 77.050781 428 96.414062 C 444.378906 115.910156 458.304688 137.226562 469.480469 159.90625 C 471.078125 163.144531 472.625 166.410156 474.109375 169.703125 C 474.6875 170.988281 475.253906 172.285156 475.820312 173.585938 " fill-opacity="1" fill-rule="nonzero"/></g></g></g></g><g clip-path="url(#37e8083191)"><g clip-path="url(#c4bad3226e)"><g clip-path="url(#4b3acf7dec)"><path fill="#727378" d="M 474.714844 201.570312 C 474.332031 200.449219 473.941406 199.355469 473.550781 198.25 C 473.132812 197.066406 472.714844 195.863281 472.289062 194.703125 C 471.859375 193.511719 471.414062 192.367188 470.976562 191.207031 C 470.519531 190.007812 470.074219 188.800781 469.617188 187.628906 C 469.148438 186.429688 468.660156 185.261719 468.183594 184.085938 C 467.742188 183 467.308594 181.898438 466.863281 180.828125 C 465.925781 178.605469 464.976562 176.414062 464.003906 174.25 C 462.226562 170.3125 460.335938 166.425781 458.398438 162.574219 C 457.847656 161.480469 457.277344 160.394531 456.71875 159.3125 C 455.160156 156.296875 453.542969 153.304688 451.875 150.34375 C 451.367188 149.441406 450.878906 148.53125 450.363281 147.632812 C 448.214844 143.910156 445.996094 140.226562 443.691406 136.589844 C 443.230469 135.863281 442.746094 135.152344 442.285156 134.433594 C 440.359375 131.460938 438.386719 128.519531 436.359375 125.605469 C 436.007812 125.09375 435.640625 124.582031 435.285156 124.074219 C 438.488281 140.242188 440.445312 156.644531 441.101562 173.097656 C 442.105469 198.316406 440.082031 223.671875 435.074219 248.457031 C 431.5 266.238281 426.402344 283.644531 419.851562 300.484375 C 415.921875 310.589844 411.464844 320.488281 406.507812 330.140625 C 405.886719 331.351562 405.261719 332.566406 404.613281 333.78125 C 412.324219 327.214844 419.527344 320.089844 426.15625 312.457031 C 453.488281 281.070312 470.261719 242.753906 474.714844 201.570312 " fill-opacity="1" fill-rule="nonzero"/></g></g></g><g clip-path="url(#11f5c5bd53)"><g clip-path="url(#56f4d3a73c)"><g clip-path="url(#ffd84b564f)"><path fill="#727378" d="M 102.148438 72.84375 C 101.757812 76.078125 101.453125 79.347656 101.152344 82.609375 C 101.015625 84.140625 100.820312 85.660156 100.699219 87.195312 C 100.3125 92.203125 100.039062 97.21875 99.890625 102.207031 C 99.777344 106.542969 99.796875 110.875 99.871094 115.199219 C 99.894531 116.417969 99.933594 117.632812 99.96875 118.855469 C 100.074219 122.257812 100.230469 125.660156 100.449219 129.066406 C 100.515625 130.09375 100.5625 131.128906 100.636719 132.160156 C 100.957031 136.445312 101.359375 140.722656 101.855469 144.988281 C 101.957031 145.871094 102.09375 146.75 102.203125 147.632812 C 102.636719 151.105469 103.136719 154.570312 103.695312 158.027344 C 103.796875 158.65625 103.898438 159.289062 104.007812 159.921875 C 108.148438 143.875 113.503906 128.234375 120.019531 113.195312 C 130.027344 90.109375 142.859375 68.144531 158.15625 47.90625 C 162.511719 42.132812 167.0625 36.523438 171.804688 31.070312 C 181.28125 20.171875 191.519531 9.925781 202.445312 0.410156 C 207.902344 -4.34375 213.535156 -8.917969 219.332031 -13.300781 C 220.449219 -14.148438 221.574219 -14.992188 222.710938 -15.835938 C 212.789062 -13.265625 203.117188 -9.957031 193.785156 -5.933594 C 155.753906 10.46875 124.09375 37.695312 102.148438 72.84375 " fill-opacity="1" fill-rule="nonzero"/></g></g></g><g clip-path="url(#b65d3ddf96)"><g clip-path="url(#8fcfcdb80f)"><g clip-path="url(#cc949ec297)"><path fill="#727378" d="M 207.714844 370.863281 C 210.902344 370.535156 214.054688 370.109375 217.203125 369.683594 C 218.851562 369.460938 220.519531 369.300781 222.152344 369.054688 C 227.101562 368.3125 231.988281 367.449219 236.773438 366.476562 C 241.03125 365.625 245.253906 364.644531 249.464844 363.613281 C 250.65625 363.316406 251.839844 363.007812 253.019531 362.703125 C 256.3125 361.847656 259.585938 360.941406 262.847656 359.976562 C 263.84375 359.683594 264.855469 359.40625 265.847656 359.101562 C 269.960938 357.839844 274.042969 356.496094 278.09375 355.070312 C 278.898438 354.78125 279.691406 354.46875 280.496094 354.175781 C 283.828125 352.964844 287.136719 351.699219 290.417969 350.367188 C 290.988281 350.140625 291.558594 349.90625 292.125 349.671875 C 275.605469 349.207031 259.148438 347.457031 242.980469 344.453125 C 218.3125 339.84375 194.0625 332.234375 170.90625 321.820312 C 170.90625 321.820312 170.902344 321.820312 170.902344 321.820312 C 151.070312 312.875 132.234375 301.933594 114.679688 289.171875 C 108.824219 284.921875 103.121094 280.46875 97.5625 275.816406 C 96.488281 274.914062 95.417969 273.992188 94.34375 273.066406 C 99.058594 282.125 104.453125 290.808594 110.480469 299.042969 C 134.925781 332.492188 168.527344 357.308594 207.714844 370.863281 " fill-opacity="1" fill-rule="nonzero"/></g></g></g><path fill="#727378" d="M 222.511719 354.574219 L 125.851562 156.347656 L 178.03125 153.402344 L 236.789062 283.890625 L 280.417969 147.59375 L 332.59375 144.632812 L 258.949219 352.515625 Z M 222.511719 354.574219 " fill-opacity="1" fill-rule="nonzero"/><g clip-path="url(#3ea873c4ea)"><g clip-path="url(#d7e7fc7cbb)"><g clip-path="url(#395a395b7d)"><path fill="#ff0000" d="M 399.808594 136.871094 C 399.652344 137.871094 399.023438 138.6875 398.394531 139.480469 C 398.945312 139.839844 399.214844 140.511719 399.304688 141.164062 C 399.394531 141.816406 399.34375 142.480469 399.433594 143.132812 C 399.523438 143.78125 399.882812 144.542969 400.433594 144.902344 C 399.972656 145.117188 399.734375 145.65625 399.722656 146.167969 C 399.710938 146.675781 399.878906 147.167969 400.039062 147.652344 C 400.191406 148.140625 400.332031 148.648438 400.25 149.148438 L 400.261719 149.148438 C 401.046875 149.132812 401.863281 149.128906 402.566406 149.476562 C 402.773438 149.582031 402.96875 149.714844 403.125 149.878906 C 403.476562 150.265625 403.625 150.808594 403.621094 151.328125 C 403.621094 151.851562 403.488281 152.363281 403.359375 152.867188 C 403.894531 153.089844 404.6875 153.253906 405.070312 153.6875 C 405.3125 153.964844 405.46875 154.308594 405.65625 154.625 C 406.320312 155.753906 407.425781 156.609375 407.882812 157.832031 L 407.886719 157.835938 C 407.933594 157.960938 407.886719 158.101562 407.808594 158.207031 C 407.726562 158.316406 407.625 158.398438 407.535156 158.5 C 407.242188 158.847656 407.222656 159.359375 407.316406 159.804688 C 407.414062 160.253906 407.601562 160.675781 407.6875 161.128906 C 407.855469 162.042969 407.496094 162.996094 407.207031 163.878906 C 407.675781 164.136719 408.144531 164.394531 408.507812 164.78125 C 408.867188 165.164062 409.113281 165.699219 409.03125 166.21875 C 408.921875 166.855469 408.257812 167.417969 407.746094 167.808594 C 408.339844 168.042969 408.980469 168.308594 409.3125 168.859375 C 409.539062 169.246094 409.589844 169.714844 409.808594 170.101562 C 410.003906 170.433594 410.316406 170.683594 410.660156 170.859375 C 410.996094 171.035156 411.371094 171.144531 411.742188 171.253906 C 411.550781 172.210938 412.046875 173.257812 412.648438 174.03125 C 413.242188 174.804688 413.996094 175.441406 414.585938 176.21875 C 415.34375 177.207031 415.816406 178.40625 415.949219 179.644531 C 414.601562 180.621094 412.871094 181.339844 411.214844 181.449219 C 410.449219 181.5 409.679688 181.449219 408.929688 181.589844 C 408.175781 181.726562 407.351562 182.097656 406.96875 182.753906 C 406.535156 182.441406 406 182.265625 405.464844 182.273438 C 404.84375 182.277344 404.25 182.515625 403.644531 182.660156 C 403.042969 182.808594 402.3125 182.828125 401.792969 182.484375 C 401.902344 183.136719 401.859375 183.816406 401.660156 184.453125 C 401.589844 184.675781 401.484375 184.910156 401.28125 185.03125 C 401.128906 185.125 400.941406 185.136719 400.765625 185.140625 C 400.089844 185.152344 399.375 185.042969 398.71875 184.898438 C 398.40625 185.007812 398.21875 185.316406 398.097656 185.621094 C 397.980469 185.925781 397.90625 186.253906 397.714844 186.523438 C 397.238281 187.203125 396.214844 187.253906 395.617188 187.832031 C 395.121094 188.304688 394.851562 189.070312 394.757812 189.746094 C 394.476562 189.65625 394.175781 189.714844 393.898438 189.804688 C 393.617188 189.890625 393.351562 190.015625 393.0625 190.0625 C 392.625 190.140625 392.183594 190.050781 391.746094 190.089844 C 391.125 190.140625 390.546875 190.441406 389.929688 190.492188 C 389.226562 190.542969 388.546875 190.265625 387.894531 189.996094 C 387.5 190.664062 387.277344 190.867188 386.71875 191.410156 C 386.5 191.625 386.25 191.839844 385.9375 191.886719 C 385.6875 191.925781 385.425781 191.847656 385.1875 191.746094 C 384.488281 191.460938 383.820312 190.992188 383.277344 190.460938 C 382.703125 191.140625 381.6875 191.234375 381.011719 191.804688 C 380.539062 192.203125 380.246094 192.867188 380.28125 193.488281 C 379.730469 193.277344 379.101562 193.535156 378.652344 193.914062 C 378.203125 194.289062 377.855469 194.78125 377.402344 195.15625 C 376.789062 195.667969 375.988281 195.945312 375.191406 195.925781 L 375.136719 195.78125 C 375.28125 196.851562 374.9375 197.988281 374.222656 198.796875 C 374.023438 199.023438 373.777344 199.234375 373.484375 199.304688 C 373.234375 199.367188 372.96875 199.328125 372.71875 199.265625 C 371.808594 199.058594 370.941406 198.664062 370.183594 198.105469 C 369.441406 198.574219 368.683594 199.046875 367.804688 199.035156 C 367.359375 199.03125 366.914062 198.890625 366.464844 198.910156 C 365.761719 198.941406 365.09375 199.390625 364.796875 200.027344 C 364.507812 199.601562 363.945312 199.378906 363.433594 199.367188 C 362.914062 199.355469 362.410156 199.503906 361.917969 199.648438 C 361.425781 199.792969 360.917969 199.9375 360.402344 199.921875 C 360.617188 200.644531 360.558594 201.292969 360.304688 202.003906 C 360.207031 202.292969 360.050781 202.578125 359.796875 202.734375 C 359.625 202.839844 359.429688 202.875 359.234375 202.902344 C 358.527344 202.996094 357.808594 202.960938 357.117188 202.792969 C 356.371094 203.449219 356.234375 204.574219 355.421875 205.144531 C 355.042969 205.410156 354.558594 205.515625 354.179688 205.785156 C 353.875 205.992188 353.65625 206.289062 353.371094 206.519531 C 352.867188 206.925781 352.1875 207.121094 351.800781 207.640625 C 351.277344 207.136719 350.414062 206.910156 349.691406 206.996094 C 349.269531 207.042969 348.867188 207.203125 348.445312 207.28125 C 347.644531 207.429688 346.605469 207.195312 345.910156 206.777344 C 345.703125 207.21875 345.667969 207.304688 345.375 207.695312 C 345.078125 208.082031 344.675781 208.40625 344.203125 208.523438 C 343.773438 208.632812 343.308594 208.554688 342.917969 208.351562 C 342.523438 208.140625 342.09375 207.707031 341.871094 207.324219 C 341.757812 208.007812 341.269531 208.605469 340.664062 208.933594 C 340.246094 209.160156 339.773438 209.277344 339.375 209.535156 C 338.820312 209.898438 338.398438 210.675781 338.378906 211.339844 C 337.683594 211.167969 336.945312 211.414062 336.328125 211.777344 C 335.332031 212.363281 334.539062 213.234375 333.625 213.933594 C 332.574219 214.75 330.917969 215.445312 329.832031 215.472656 C 329.042969 214.511719 328.527344 213.328125 328.363281 212.09375 C 328.230469 211.128906 328.308594 210.140625 328.179688 209.175781 C 328.054688 208.210938 327.660156 207.117188 326.847656 206.578125 C 327.03125 206.238281 327.21875 205.898438 327.328125 205.53125 C 327.445312 205.160156 327.492188 204.765625 327.390625 204.390625 C 327.273438 203.960938 326.972656 203.601562 326.863281 203.167969 C 326.703125 202.546875 326.964844 201.902344 327.21875 201.308594 C 326.578125 201.402344 325.714844 201.476562 325.183594 201.101562 C 324.753906 200.796875 324.550781 200.246094 324.535156 199.714844 C 324.515625 199.191406 324.667969 198.671875 324.8125 198.164062 C 323.976562 197.742188 323.054688 197.332031 322.523438 196.558594 C 322.261719 196.183594 322.097656 195.75 321.847656 195.367188 C 321.59375 194.984375 321.21875 194.644531 320.761719 194.605469 C 320.628906 194.59375 320.5 194.609375 320.367188 194.589844 C 320.234375 194.570312 320.101562 194.507812 320.046875 194.382812 C 319.503906 193.195312 319.667969 191.800781 319.339844 190.539062 C 319.246094 190.179688 319.113281 189.832031 319.089844 189.460938 C 319.050781 188.886719 319.492188 188.210938 319.714844 187.671875 C 319.261719 187.410156 318.808594 187.140625 318.433594 186.769531 C 318.0625 186.402344 317.777344 185.917969 317.757812 185.398438 C 317.75 185.167969 317.792969 184.9375 317.867188 184.722656 C 318.113281 183.976562 318.695312 183.398438 319.257812 182.855469 L 319.265625 182.847656 C 318.855469 182.542969 318.59375 182.089844 318.359375 181.640625 C 318.121094 181.183594 317.890625 180.71875 317.523438 180.367188 C 317.160156 180.019531 316.605469 179.804688 316.128906 179.980469 C 316.257812 179.332031 315.976562 178.546875 315.578125 178.023438 C 315.175781 177.5 314.667969 177.070312 314.269531 176.546875 C 313.871094 176.023438 313.582031 175.359375 313.71875 174.714844 C 312.710938 174.597656 311.691406 174.46875 310.871094 173.875 C 310.5625 173.652344 310.285156 173.347656 310.207031 172.976562 C 310.144531 172.691406 310.203125 172.398438 310.277344 172.121094 C 310.398438 171.660156 310.578125 171.222656 310.804688 170.808594 C 310.960938 170.53125 311.136719 170.261719 311.222656 169.957031 C 311.308594 169.648438 311.289062 169.292969 311.074219 169.058594 C 310.828125 168.617188 310.613281 168.054688 310.578125 167.554688 C 310.53125 166.988281 310.726562 166.421875 310.664062 165.859375 C 310.601562 165.214844 310.1875 164.597656 309.605469 164.308594 C 309.835938 164.082031 310.070312 163.839844 310.167969 163.535156 C 310.261719 163.257812 310.242188 162.957031 310.203125 162.671875 C 310.09375 161.863281 309.84375 161.085938 309.597656 160.3125 C 309.578125 160.238281 309.550781 160.152344 309.480469 160.109375 C 309.417969 160.0625 309.152344 160.097656 309.128906 160.175781 C 308.21875 160.320312 307.246094 159.882812 306.742188 159.109375 C 306.242188 158.332031 306.253906 157.265625 306.765625 156.496094 C 305.984375 156.363281 305.269531 155.867188 304.757812 155.261719 C 304.246094 154.660156 303.875 153.953125 303.460938 153.277344 C 303.050781 152.605469 302.585938 151.941406 301.949219 151.472656 C 302.355469 150.789062 302.8125 150.101562 302.722656 149.339844 C 302.65625 148.789062 302.40625 148.269531 302.316406 147.71875 C 302.1875 146.957031 302.386719 146.152344 302.851562 145.542969 C 302.386719 145.285156 301.886719 144.910156 301.542969 144.511719 C 301.199219 144.109375 300.976562 143.578125 301.054688 143.054688 C 301.148438 142.390625 301.746094 141.828125 302.289062 141.433594 L 302.316406 141.421875 C 301.921875 141.324219 301.941406 141.335938 301.601562 141.125 C 301.1875 140.867188 300.878906 140.457031 300.625 140.035156 C 300.371094 139.613281 300.152344 139.171875 299.847656 138.789062 C 299.726562 138.476562 299.40625 138.179688 299.078125 138.117188 C 298.859375 138.078125 298.605469 138.097656 298.445312 137.949219 C 298.339844 137.847656 298.304688 137.695312 298.328125 137.554688 C 298.347656 137.417969 298.429688 137.261719 298.523438 137.152344 C 297.96875 135.925781 296.972656 134.960938 296.152344 133.894531 C 295.140625 132.582031 294.378906 131.089844 293.910156 129.507812 C 294.699219 128.753906 296.53125 128.09375 297.851562 127.921875 C 298.992188 127.769531 300.164062 127.816406 301.28125 127.527344 C 301.972656 127.34375 302.671875 126.996094 303.039062 126.382812 C 303.523438 126.835938 304.375 127.085938 305.023438 126.945312 C 305.488281 126.847656 305.902344 126.589844 306.355469 126.453125 C 307.023438 126.257812 307.785156 126.328125 308.351562 126.734375 C 308.238281 126.304688 308.234375 125.699219 308.359375 125.269531 C 308.492188 124.84375 308.765625 124.460938 309.144531 124.234375 C 309.5625 123.980469 310.074219 123.921875 310.554688 123.988281 C 311.042969 124.050781 311.128906 124.085938 311.582031 124.253906 C 311.777344 123.464844 312.347656 122.5625 313.015625 122.101562 C 313.367188 121.859375 313.761719 121.683594 314.097656 121.417969 C 314.664062 120.964844 315.113281 120.199219 315.125 119.46875 C 315.769531 119.5625 316.382812 119.210938 317.027344 119.144531 C 317.386719 119.105469 317.757812 119.15625 318.117188 119.089844 C 318.578125 119.007812 318.992188 118.742188 319.453125 118.65625 C 320.429688 118.484375 321.320312 119.179688 322.308594 119.113281 C 322.679688 118.507812 323.160156 117.96875 323.726562 117.535156 C 323.882812 117.414062 324.050781 117.300781 324.238281 117.253906 C 324.535156 117.179688 324.847656 117.277344 325.121094 117.410156 C 325.800781 117.730469 326.300781 118.144531 326.664062 118.808594 C 327.015625 118.425781 327.476562 118.171875 327.925781 117.925781 C 328.375 117.679688 328.839844 117.425781 329.191406 117.050781 C 329.546875 116.671875 329.785156 116.121094 329.6875 115.613281 C 330.347656 115.855469 331.140625 115.695312 331.65625 115.214844 C 331.984375 114.910156 332.199219 114.5 332.511719 114.179688 C 333.121094 113.550781 333.992188 113.34375 334.84375 113.148438 C 334.988281 112.222656 335.316406 111.324219 335.8125 110.527344 C 335.949219 110.3125 336.101562 110.097656 336.316406 109.960938 C 336.578125 109.800781 336.902344 109.777344 337.203125 109.796875 C 338.285156 109.855469 339.328125 110.414062 339.988281 111.277344 L 339.921875 111.132812 C 340.46875 110.554688 341.234375 110.183594 342.027344 110.105469 C 342.609375 110.050781 343.203125 110.152344 343.789062 110.09375 C 344.375 110.042969 344.996094 109.777344 345.238281 109.242188 C 345.648438 109.699219 346.328125 109.960938 346.949219 109.910156 C 347.828125 109.832031 348.613281 109.179688 349.496094 109.25 C 349.503906 108.488281 349.644531 107.691406 349.933594 106.988281 C 350.03125 106.75 350.15625 106.507812 350.363281 106.355469 C 350.613281 106.171875 350.945312 106.144531 351.253906 106.140625 C 352.027344 106.128906 352.332031 106.113281 353.082031 106.300781 C 353.347656 105.648438 353.632812 104.972656 354.167969 104.511719 C 354.636719 104.109375 355.261719 103.910156 355.730469 103.507812 C 356.066406 103.222656 356.316406 102.84375 356.675781 102.589844 C 356.914062 102.421875 357.191406 102.320312 357.449219 102.183594 C 357.710938 102.046875 357.960938 101.871094 358.097656 101.609375 C 358.644531 102.019531 359.371094 102.375 360.058594 102.355469 C 360.898438 102.328125 361.648438 101.640625 362.46875 101.785156 C 362.796875 101.839844 363.078125 102.019531 363.378906 102.148438 C 363.675781 102.277344 364.03125 102.363281 364.328125 102.222656 C 364.6875 101.652344 365.117188 101.066406 365.601562 100.59375 C 365.730469 100.472656 365.867188 100.351562 366.039062 100.304688 C 366.269531 100.246094 366.511719 100.335938 366.71875 100.445312 C 367.3125 100.753906 367.824219 101.199219 368.207031 101.742188 C 368.332031 101.128906 368.859375 100.625 369.386719 100.296875 C 369.917969 99.972656 370.5 99.71875 370.949219 99.285156 C 371.324219 98.910156 371.582031 98.40625 371.664062 97.875 C 372.40625 98.074219 373.246094 97.746094 373.871094 97.308594 C 374.5 96.875 375.007812 96.289062 375.582031 95.789062 C 376.832031 94.683594 378.660156 93.828125 380.304688 93.558594 C 381.097656 95.011719 381.617188 96.605469 381.839844 98.242188 C 382.015625 99.578125 381.996094 100.960938 382.480469 102.222656 C 382.621094 102.230469 382.785156 102.285156 382.902344 102.371094 C 383.019531 102.453125 383.101562 102.585938 383.097656 102.726562 C 383.09375 102.949219 382.898438 103.109375 382.773438 103.296875 C 382.582031 103.574219 382.566406 104.007812 382.707031 104.3125 C 382.765625 104.800781 382.925781 105.269531 383.042969 105.746094 C 383.160156 106.222656 383.234375 106.722656 383.125 107.203125 C 383.035156 107.597656 383.042969 107.574219 382.832031 107.921875 L 382.863281 107.910156 C 383.519531 107.800781 384.34375 107.78125 384.882812 108.175781 C 385.308594 108.492188 385.523438 109.023438 385.570312 109.546875 C 385.609375 110.074219 385.519531 110.695312 385.375 111.207031 C 386.136719 111.304688 386.851562 111.734375 387.300781 112.359375 C 387.625 112.816406 387.8125 113.355469 388.164062 113.792969 C 388.644531 114.382812 389.453125 114.550781 390.21875 114.75 C 390.105469 115.53125 390.25 116.328125 390.4375 117.089844 C 390.625 117.859375 390.859375 118.625 390.929688 119.410156 C 390.996094 120.199219 390.847656 121.058594 390.390625 121.703125 C 391.292969 121.882812 392.058594 122.632812 392.257812 123.527344 C 392.457031 124.425781 392.078125 125.433594 391.332031 125.976562 C 391.261719 125.933594 391.050781 126.101562 391.035156 126.175781 C 391.023438 126.257812 391.0625 126.332031 391.097656 126.40625 C 391.476562 127.125 391.855469 127.847656 392.34375 128.492188 C 392.523438 128.726562 392.71875 128.953125 392.980469 129.082031 C 393.269531 129.222656 393.605469 129.226562 393.929688 129.230469 C 393.71875 129.839844 393.875 130.570312 394.28125 131.074219 C 394.636719 131.511719 395.175781 131.773438 395.546875 132.199219 C 395.875 132.582031 396.117188 133.128906 396.257812 133.613281 C 396.277344 133.929688 396.515625 134.199219 396.792969 134.351562 C 397.066406 134.503906 397.386719 134.570312 397.691406 134.65625 C 398.144531 134.789062 398.585938 134.972656 398.996094 135.203125 C 399.246094 135.351562 399.496094 135.519531 399.652344 135.761719 C 399.84375 136.085938 399.863281 136.492188 399.808594 136.871094 Z M 399.808594 136.871094 " fill-opacity="1" fill-rule="nonzero"/></g></g></g><g clip-path="url(#cd4c7cc9fc)"><g clip-path="url(#d1ffcc1c08)"><g clip-path="url(#ca045919e8)"><path fill="#ffffff" d="M 290.464844 127.980469 L 381.625 90.054688 L 419.550781 181.210938 L 328.390625 219.136719 Z M 290.464844 127.980469 " fill-opacity="1" fill-rule="nonzero"/></g></g></g><path fill="#727378" d="M 279.761719 98.148438 L 382.890625 289.886719 L 339.195312 313.402344 L 236.066406 121.660156 Z M 279.761719 98.148438 " fill-opacity="1" fill-rule="nonzero"/><g clip-path="url(#85ba78a8fc)"><g clip-path="url(#5541d33c23)"><path fill="#727378" d="M 333.652344 303.109375 L 377.523438 279.589844 L 397.328125 316.539062 L 353.453125 340.054688 Z M 333.652344 303.109375 " fill-opacity="1" fill-rule="nonzero"/></g></g><g clip-path="url(#e05c7edfbf)"><g clip-path="url(#29896abfae)"><path fill="#727378" d="M 232.15625 117.152344 L 382.132812 25.539062 L 404.640625 62.382812 L 254.664062 153.996094 Z M 232.15625 117.152344 " fill-opacity="1" fill-rule="nonzero"/></g></g></svg>